<svg viewBox="0 0 600 250" xmlns="http://www.w3.org/2000/svg" fill-rule="evenodd" clip-rule="evenodd" stroke-linejoin="round" stroke-miterlimit="2"><circle cx="102.5" cy="202.5" r="72.5" fill="#fff" transform="translate(18.966 -84.343) scale(1.03448)"/><path d="M119.949 50.163c-6.93.454-14.386 2.051-20.904 4.468C86.02 59.466 74.478 67.89 65.937 78.817c-17.051 21.784-20.714 51.097-9.566 76.44 4.893 11.148 12.775 21.256 22.443 28.815 21.783 17.051 51.096 20.714 76.44 9.566 11.118-4.879 21.168-12.701 28.741-22.34a74.982 74.982 0 009.64-76.543c-4.893-11.148-12.775-21.255-22.443-28.814-14.561-11.398-32.726-16.994-51.243-15.778zm18.736 38.454l8.629 8.731 12.48-12.48 5.714 5.712-12.247 12.247.322.293c.176.147.88 1.04 1.583 1.963 3.618 4.79 5.903 10.24 6.855 16.334.41 2.534.352 8.145-.087 10.753-2.52 14.78-13.463 26.207-27.951 29.24-4.527.937-10.225.908-14.825-.089-5.288-1.157-10.504-3.662-14.781-7.134L103 153.09l-12.716 12.715-2.783-2.783c-1.524-1.524-2.783-2.842-2.783-2.93 0-.073 2.856-3.003 6.343-6.49l6.328-6.357-8.701-8.614L79.97 130l24.977-25.05c13.726-13.77 24.992-25.035 25.036-25.05.044-.014 3.955 3.912 8.701 8.716z" fill-rule="nonzero"/><path d="M130.496 90.727l-39.699 39.7 11.72 11.719 39.699-39.7-11.72-11.719zM128.08 128.01c-17.038 17.036-19.806 19.863-19.645 20.054.278.337 3.003 2.153 4.263 2.842 4.468 2.432 10.049 3.618 15.279 3.252 10.913-.776 20.303-7.618 24.317-17.726 1.275-3.222 1.832-5.918 1.963-9.448.176-4.82-.703-9.01-2.754-13.258-.85-1.772-2.74-4.79-3.31-5.303-.264-.249-.982.454-20.114 19.586z" fill-rule="nonzero"/><g><g fill-rule="nonzero"><path d="M475 50c41.425 0 75 33.582 75 75 0 41.425-33.575 75-75 75-41.418 0-75-33.578-75-75 0-41.418 33.582-75 75-75z" fill="#ffb600"/><path d="M449.826 130.295h56.437c.607 0 .894 0 .938-.796.233-2.9.233-5.815 0-8.718 0-.564-.28-.796-.89-.796h-56.718c-.702 0-.891.232-.891.89v8.344c0 1.076 0 1.076 1.124 1.076zm54.192-20.06a.912.912 0 000-.656 18.535 18.535 0 00-1.694-2.953 23.914 23.914 0 00-3.47-4.36 11.5 11.5 0 00-2.156-2.11 33.694 33.694 0 00-14.064-7.124 34.96 34.96 0 00-7.968-.844h-25.171c-.702 0-.797.28-.797.89v16.64c0 .702 0 .89.891.89h54.092s.47-.094.564-.374h-.23.003zm0 29.81c-.796-.087-1.6-.087-2.396 0H449.64c-.702 0-.938 0-.938.94v16.267c0 .749 0 .938.938.938h24c1.147.088 2.295.007 3.419-.233a35.728 35.728 0 0010.175-2.251 18.625 18.625 0 003.42-1.593h.327a30.453 30.453 0 0013.078-13.166s.327-.709-.04-.894v-.007zm-64.736 26.58v-25.921c0-.61 0-.702-.75-.702H428.36c-.563 0-.796 0-.796-.75v-8.906h10.874c.608 0 .844 0 .844-.797v-8.812c0-.563 0-.702-.75-.702H428.36c-.563 0-.796 0-.796-.749v-8.249c0-.516 0-.654.75-.654h10.077c.702 0 .891 0 .891-.891V84.226c0-.75 0-.938.938-.938h35.155c2.551.101 5.086.381 7.593.844a45.819 45.819 0 0114.672 5.437 41.346 41.346 0 018.248 6.375 45.169 45.169 0 015.015 6.234 37.595 37.595 0 013.662 7.172 1.22 1.22 0 001.401.985h8.39c1.077 0 1.077 0 1.124 1.033v7.688c0 .75-.28.939-1.033.939h-6.47c-.654 0-.843 0-.796.844.257 2.855.257 5.72 0 8.575 0 .797 0 .891.894.891h7.402c.327.422 0 .844 0 1.27a9.469 9.469 0 010 1.636v5.674c0 .796-.233 1.033-.938 1.033h-8.86a1.173 1.173 0 00-1.36.89 37.483 37.483 0 01-9.845 14.344 56.46 56.46 0 01-5.015 4.03c-1.877 1.08-3.703 2.204-5.626 3.095a50.682 50.682 0 01-11.064 3.514 57.677 57.677 0 01-10.969.89h-32.532v-.047l.014-.01z" fill="#fefefd"/></g></g><g><path d="M300 184.956c-35.188-34.618-68.75-64.356-68.75-90.012 0-23.694 19.175-32.444 33.006-32.444 8.2 0 25.944 3.131 35.744 27.856 9.938-24.8 27.9-27.793 35.787-27.793 15.876 0 32.963 10.13 32.963 32.38 0 25.432-32.1 53.907-68.75 90.013m35.787-128.643C322.02 56.313 308 62.825 300 76.55c-8.031-13.787-22.013-20.3-35.744-20.3C244.363 56.25 225 69.919 225 94.944c0 29.131 34.819 58.931 75 98.806 40.188-39.875 75-69.675 75-98.806 0-25.069-19.344-38.631-39.213-38.631"/></g></svg>